Coordinates
version=1
nRows=7
nColumns=61
inDegrees=yes

Units are S.I. units (second, meters, Newtons, ...)
Angles are in degrees.

endheader
time	pelvis_tilt	pelvis_list	pelvis_rotation	pelvis_tx	pelvis_ty	pelvis_tz	hip_flexion_r	hip_adduction_r	hip_rotation_r	knee_angle_r	knee_angle_r_beta	ankle_angle_r	subtalar_angle_r	mtp_angle_r	hip_flexion_l	hip_adduction_l	hip_rotation_l	knee_angle_l	knee_angle_l_beta	ankle_angle_l	subtalar_angle_l	mtp_angle_l	lumbar_extension	lumbar_bending	lumbar_rotation	arm_flex_r	arm_add_r	arm_rot_r	elbow_flex_r	pro_sup_r	wrist_flex_r	wrist_dev_r	arm_flex_l	arm_add_l	arm_rot_l	elbow_flex_l	pro_sup_l	wrist_flex_l	wrist_dev_l	rightChainstay_rx	rightChainstay_ry	rightChainstay_rz	leftChainstay_rx	leftChainstay_ry	leftChainstay_rz	steeringTube_rx	steeringTube_ry	steeringTube_rz	frontWheel_rx	frontWheel_ry	frontWheel_rz	seatpost_tx	saddle_rz	saddle_tx	saddle_ty	crankSpindle_rx	crankSpindle_ry	crankSpindle_rz	leftPedal_rz	rightPedal_rz
      5.00500000	     -6.01506376	      6.76487509	      9.72748165	      0.12928753	      1.12553305	     -0.25411424	     49.26893965	    -22.05181133	     -2.63372714	     82.96260365	      1.44797059	    -20.47534311	      5.19718993	    -20.00000000	     59.96838207	      1.60636991	     -9.26651758	     65.99568146	      1.15184193	     22.61905054	      6.60216873	    -20.00000000	    -74.66401405	      7.96238346	     -4.03876118	    113.55356193	     -1.90866482	     69.47819972	      2.74444203	     21.06129801	      0.00000000	     -0.00000000	    112.93684658	     -1.19516680	     86.50314695	      0.12928437	      2.91201462	     -0.00000000	     -0.00000000	    109.31700535	      0.00000000	      0.00000000	    109.31700535	     -0.00000000	     -0.00000000	      0.00000000	     -5.02877131	      0.00000000	     -0.00000000	      0.00000018	      0.00000000	      0.00000000	     -0.00000000	      0.00000000	      0.00000000	     -0.00000000	   2329.68689556	     -0.00000000	   2354.27391802	   2284.97982599
      5.01000000	     -5.64109423	      6.51739638	      9.49312077	      0.12985359	      1.12539880	     -0.25461545	     50.18551745	    -21.72472301	     -1.75680823	     85.38279099	      1.49021083	    -19.64194967	      5.29585371	    -20.00000000	     58.06669516	      1.33303366	     -9.41480443	     63.40204728	      1.10657448	     21.14242438	      6.65259875	    -20.00000000	    -74.99278706	      7.76775340	     -3.79978759	    113.51709378	     -1.90450241	     69.57234298	      2.74214466	     20.96346161	      0.00000000	      0.00000000	    112.90620759	     -1.20065146	     86.41993605	      0.13390648	      2.99908537	     -0.00000000	      0.00000000	    109.31700535	      0.00000000	      0.00000000	    109.31700535	     -0.00000000	     -0.00000000	     -0.00000000	     -5.05340094	      0.00000000	      0.00000000	      0.00000018	     -0.00000000	      0.00000000	      0.00000000	      0.00000000	      0.00000000	      0.00000000	   2333.52202039	     -0.00000000	   2357.69578908	   2288.29201618
      5.01500000	     -5.29284529	      6.19354263	      9.28944750	      0.13040851	      1.12529393	     -0.25511167	     51.12101624	    -21.33692373	     -1.00431204	     87.77789129	      1.53201321	    -18.67274277	      5.39354205	    -20.00000000	     56.17027871	      1.01701951	     -9.53449640	     60.79355567	      1.06104771	     19.44604027	      6.72777684	    -20.00000000	    -75.31930102	      7.56340239	     -3.54073687	    113.50648886	     -1.89394137	     69.65069149	      2.73316388	     20.88006375	     -0.00000000	      0.00000000	    112.90317458	     -1.20796018	     86.29511500	      0.14009902	      3.12938529	     -0.00000000	     -0.00000000	    109.46670828	      0.00000000	      0.00000000	    109.46670828	     -0.00000000	     -0.00000000	     -0.00000000	     -5.00735365	     -0.00000000	      0.00000000	      0.00000018	     -0.00000000	      0.00000000	      0.00000000	     -0.00000000	      0.00000000	     -0.00000000	   2337.41213553	     -0.00000000	   2360.94837614	   2291.83991849
      5.02000000	     -5.09482540	      5.56944881	      9.20190825	      0.13096603	      1.12498954	     -0.25610089	     52.12631001	    -20.83071609	     -0.56686213	     90.05414262	      1.57174129	    -17.75214965	      5.54075093	    -20.00000000	     54.48624191	      0.67115243	     -9.32936199	     58.27616314	      1.01711092	     18.06455423	      6.82720656	    -20.00000000	    -75.44375108	      7.67356284	     -2.99213334	    113.43810066	     -1.88393501	     69.70900259	      2.72425442	     20.81795233	      0.00000000	     -0.00000000	    112.84056786	     -1.21541195	     86.20066525	      0.14678784	      3.22797852	      0.00000000	     -0.00000000	    109.46670828	      0.00000000	      0.00000000	    109.46670828	     -0.00000000	     -0.00000000	      0.00000000	     -5.11558061	     -0.00000000	     -0.00000000	      0.00000018	     -0.00000000	     -0.00000000	      0.00000000	      0.00000000	      0.00000000	     -0.00000000	   2341.18557465	      0.00000000	   2364.32913547	   2295.34752548
      5.02500000	     -4.63125251	      5.28799911	      8.70845581	      0.13162093	      1.12498891	     -0.25617679	     53.06493954	    -20.16104328	      0.35789658	     92.49359587	      1.61431778	    -16.14423745	      5.73142714	    -20.00000000	     52.41321682	      0.09795309	     -9.76541149	     55.74487319	      0.97293158	     15.85020776	      6.92195234	    -20.00000000	    -75.90534272	      7.01151410	     -2.82788666	    113.45338378	     -1.86015213	     69.75695005	      2.70139515	     20.76286380	     -0.00000000	      0.00000000	    112.86620702	     -1.22810963	     86.00849251	      0.15805072	      3.42817929	      0.00000000	     -0.00000000	    109.47182511	      0.00000000	      0.00000000	    109.47182511	     -0.00000000	     -0.00000000	     -0.00000000	     -4.86379707	     -0.00000000	     -0.00000000	      0.00000018	     -0.00000000	      0.00000000	      0.00000000	     -0.00000000	     -0.00000000	     -0.00000000	   2345.28613465	     -0.00000000	   2367.15373751	   2299.72275083
      5.03000000	     -4.29019026	      4.88461905	      8.51433940	      0.13188418	      1.12478342	     -0.25687582	     54.07160065	    -19.66768433	      0.96134483	     94.82917402	      1.65508131	    -14.67403216	      5.92986867	    -20.00000000	     50.52026327	     -0.23310515	     -9.90809146	     53.23070588	      0.92905108	     13.84572107	      7.03000114	    -20.00000000	    -76.17378587	      6.74024704	     -2.61708677	    113.42895395	     -1.82031667	     69.78149183	      2.66215333	     20.72713019	      0.00000000	      0.00000000	    112.85755715	     -1.24513905	     85.69192002	      0.17264849	      3.75753221	      0.00000000	      0.00000000	    109.47182511	      0.00000000	      0.00000000	    109.47182511	     -0.00000000	     -0.00000000	      0.00000000	     -4.68436836	     -0.00000000	     -0.00000000	      0.00000018	      0.00000000	      0.00000000	      0.00000000	     -0.00000000	      0.00000000	     -0.00000000	   2349.25787176	     -0.00000000	   2370.05435165	   2303.96647872
      5.03500000	     -4.09419908	      4.27410159	      8.18877611	      0.13238261	      1.12439726	     -0.25755546	     55.22199430	    -18.93103565	      1.40554803	     97.09243926	      1.69458274	    -13.04485696	      6.12429318	    -20.00000000	     48.83007037	     -0.81474502	    -10.03393764	     50.84771449	      0.88746003	     11.62471105	      7.12145123	    -20.00000000	    -76.34140934	      6.38620156	     -2.21942607	    113.42376732	     -1.78752638	     69.82236033	      2.62994085	     20.67854573	      0.00000000	      0.00000000	    112.86376329	     -1.26422167	     85.47464404	      0.19024318	      3.98359785	      0.00000000	     -0.00000000	    109.47182511	      0.00000000	      0.00000000	    109.47182511	     -0.00000000	     -0.00000000	      0.00000000	     -4.49124584	     -0.00000000	      0.00000000	      0.00000018	      0.00000000	      0.00000000	      0.00000000	      0.00000000	      0.00000000	      0.00000000	   2353.30473973	      0.00000000	   2372.75537640	   2308.55905054
